<svg width="512" height="512" viewBox="0 0 512 512" fill="none" xmlns="http://www.w3.org/2000/svg">
  <!-- 背景圆 -->
  <circle cx="256" cy="256" r="256" fill="#F8F9FA"/>
  
  <!-- 主要PDF文档图标 -->
  <g filter="url(#shadow)">
    <rect x="110" y="80" width="240" height="320" rx="12" fill="#FFFFFF" stroke="#E9ECEF" stroke-width="4"/>
    <!-- PDF文档红色顶部 -->
    <rect x="110" y="80" width="240" height="50" rx="12" fill="#FF5252"/>
    <text x="230" y="115" font-family="Arial, sans-serif" font-size="28" font-weight="bold" fill="white" text-anchor="middle">PDF</text>
    
    <!-- TOC目录内容 -->
    <line x1="140" y1="160" x2="320" y2="160" stroke="#E9ECEF" stroke-width="2"/>
    <line x1="140" y1="200" x2="320" y2="200" stroke="#E9ECEF" stroke-width="2"/>
    <line x1="140" y1="240" x2="320" y2="240" stroke="#E9ECEF" stroke-width="2"/>
    <line x1="140" y1="280" x2="320" y2="280" stroke="#E9ECEF" stroke-width="2"/>
    <line x1="140" y1="320" x2="320" y2="320" stroke="#E9ECEF" stroke-width="2"/>
    
    <!-- 标题和项目符号 -->
    <rect x="140" y="150" width="100" height="3" fill="#2B2D42"/>
    <rect x="155" y="190" width="85" height="3" fill="#6C757D"/>
    <rect x="155" y="230" width="65" height="3" fill="#6C757D"/>
    <rect x="155" y="270" width="90" height="3" fill="#6C757D"/>
    <rect x="155" y="310" width="75" height="3" fill="#6C757D"/>
    
    <!-- 项目符号 -->
    <circle cx="145" cy="191.5" r="3" fill="#4361EE"/>
    <circle cx="145" cy="231.5" r="3" fill="#4361EE"/>
    <circle cx="145" cy="271.5" r="3" fill="#4361EE"/>
    <circle cx="145" cy="311.5" r="3" fill="#4361EE"/>
  </g>
  
  <!-- 真正的空心箭头 - 放大并向左移动 -->
  <g>
    <!-- 箭头干 -->
    <rect x="275" y="243" width="86" height="25" rx="3" fill="none" stroke="#4361EE" stroke-width="7"/>
    
    <!-- 箭头头 - 空心三角形 -->
    <path d="M362 218 L398 256 L362 294 Z" fill="white" stroke="#4361EE" stroke-width="8" stroke-linejoin="round"/>
  </g>
  
  <!-- 右侧简洁目录表示 -->
  <g filter="url(#shadow2)">
    <rect x="415" y="206" width="30" height="100" rx="4" fill="#4361EE" opacity="0.9"/>
    
    <!-- 目录线条 -->
    <line x1="425" y1="216" x2="435" y2="216" stroke="white" stroke-width="2" stroke-linecap="round"/>
    <line x1="425" y1="236" x2="435" y2="236" stroke="white" stroke-width="2" stroke-linecap="round"/>
    <line x1="425" y1="256" x2="435" y2="256" stroke="white" stroke-width="2" stroke-linecap="round"/>
    <line x1="425" y1="276" x2="435" y2="276" stroke="white" stroke-width="2" stroke-linecap="round"/>
    <line x1="425" y1="296" x2="435" y2="296" stroke="white" stroke-width="2" stroke-linecap="round"/>
  </g>
  
  <!-- 阴影滤镜 -->
  <defs>
    <filter id="shadow" x="100" y="70" width="260" height="350" filterUnits="userSpaceOnUse" color-interpolation-filters="sRGB">
      <feFlood flood-opacity="0" result="BackgroundImageFix"/>
      <feColorMatrix in="SourceAlpha" type="matrix" values="0 0 0 0 0 0 0 0 0 0 0 0 0 0 0 0 0 0 127 0"/>
      <feOffset dy="10"/>
      <feGaussianBlur stdDeviation="5"/>
      <feColorMatrix type="matrix" values="0 0 0 0 0 0 0 0 0 0 0 0 0 0 0 0 0 0 0.1 0"/>
      <feBlend mode="normal" in2="BackgroundImageFix" result="effect1_dropShadow"/>
      <feBlend mode="normal" in="SourceGraphic" in2="effect1_dropShadow" result="shape"/>
    </filter>
    <filter id="shadow2" x="410" y="201" width="40" height="110" filterUnits="userSpaceOnUse" color-interpolation-filters="sRGB">
      <feFlood flood-opacity="0" result="BackgroundImageFix"/>
      <feColorMatrix in="SourceAlpha" type="matrix" values="0 0 0 0 0 0 0 0 0 0 0 0 0 0 0 0 0 0 127 0"/>
      <feOffset dy="2"/>
      <feGaussianBlur stdDeviation="2"/>
      <feColorMatrix type="matrix" values="0 0 0 0 0 0 0 0 0 0 0 0 0 0 0 0 0 0 0.15 0"/>
      <feBlend mode="normal" in2="BackgroundImageFix" result="effect1_dropShadow"/>
      <feBlend mode="normal" in="SourceGraphic" in2="effect1_dropShadow" result="shape"/>
    </filter>
  </defs>
</svg>
